# AST/ASF file generated using VICON BodyLanguage
# -----------------------------------------------
:version 1.10
:name VICON
:units
  mass 1.0
  length 0.45
  angle deg
:documentation
   .ast/.asf automatically generated from VICON data using
   VICON BodyBuilder and BodyLanguage model FoxedUp or BRILLIANT.MOD
:root
   order TX TY TZ RX RY RZ
   axis XYZ
   position 0 0 0  
   orientation 0 0 0 
:bonedata
  begin
     id 1 
     name lhipjoint
     direction 0.570549 -0.739093 0.358072 
     length 2.41801 
     axis 0 0 0  XYZ
  end
  begin
     id 2 
     name lfemur
     direction 0.34202 -0.939693 0  
     length 7.44434  
     axis 0 0 20  XYZ
    dof rx ry rz
    limits (-160.0 20.0)
           (-70.0 70.0)
           (-60.0 70.0)
  end
  begin
     id 3 
     name ltibia
     direction 0.34202 -0.939693 0   
     length 7.60047   
     axis 0 0 20   XYZ
    dof rx
    limits (-10.0 170.0)
  end
  begin
     id 4 
     name lfoot
     direction 0.0909041 -0.249757 0.964032   
     length 2.03437   
     axis -90 7.62852e-016 20   XYZ
    dof rx rz
    limits (-45.0 90.0)
           (-70.0 20.0)
  end
  begin
     id 5 
     name ltoes
     direction 1.53547e-011 -4.2174e-011 1   
     length 1.02054   
     axis -90 7.62852e-016 20   XYZ
    dof rx
    limits (-90.0 20.0)
  end
  begin
     id 6 
     name rhipjoint
     direction -0.558096 -0.746754 0.361784   
     length 2.3932  
     axis 0 0 0  XYZ 
  end
  begin
     id 7 
     name rfemur
     direction -0.34202 -0.939693 0   
     length 7.3886   
     axis 0 0 -20   XYZ
    dof rx ry rz
    limits (-160.0 20.0)
           (-70.0 70.0)
           (-70.0 60.0)
  end
  begin
     id 8 
     name rtibia
     direction -0.34202 -0.939693 0   
     length 7.4839   
     axis 0 0 -20   XYZ
    dof rx
    limits (-10.0 170.0)
 end
 begin
     id 9 
     name rfoot
     direction -0.114619 -0.314914 0.942174   
     length 2.25127  
     axis -90 -7.62852e-016 -20   XYZ
    dof rx rz
    limits (-45.0 90.0)
           (-20.0 70.0)
  end
  begin
     id 10 
     name rtoes
     direction -1.53518e-011 -4.21881e-011 1   
     length 1.11821   
     axis -90 -7.62852e-016 -20   XYZ
    dof rx
    limits (-90.0 20.0)
  end
  begin
     id 11 
     name lowerback
     direction -0.00902269 0.996426 -0.0839821   
     length 2.25052   
     axis 0 0 0   XYZ
    dof rx ry rz
    limits (-20.0 45.0)
           (-30.0 30.0)
           (-30.0 30.0)
  end
  begin
     id 12 
     name upperback
     direction 0.0370973 0.999169 -0.0168941   
     length 2.24876   
     axis 0 0 0   XYZ
    dof rx ry rz
    limits (-20.0 45.0)
           (-30.0 30.0)
           (-30.0 30.0)
  end
  begin
     id 13 
     name thorax
     direction 0.0402726 0.998931 0.0227027   
     length 2.26408   
     axis 0 0 0   XYZ
    dof rx ry rz
    limits (-20.0 45.0)
           (-30.0 30.0)
           (-30.0 30.0)
  end
  begin
     id 14 
     name lowerneck
     direction -0.0733697 0.98508 0.155675   
     length 1.58204   
     axis 0 0 0   XYZ
    dof rx ry rz
    limits (-20.0 45.0)
           (-30.0 30.0)
           (-30.0 30.0)
  end
  begin
     id 15 
     name upperneck
     direction 0.0426554 0.993501 -0.105526   
     length 1.61222   
     axis 0 0 0   XYZ
    dof rx ry rz
    limits (-20.0 45.0)
           (-30.0 30.0)
           (-30.0 30.0)
  end
  begin
     id 16
     name head
     direction 0.020792 0.998384 -0.0528868  
     length 1.61527  
     axis 0 0 0   XYZ
    dof rx ry rz
    limits (-20.0 45.0)
           (-30.0 30.0)
           (-30.0 30.0)
  end
  begin
     id 17 
     name lclavicle
     direction 0.967109 0.155462 -0.201325  
     length 3.59357  
     axis 0 0 0   XYZ
    dof ry rz
    limits (-20.0 10.0)
           (0.0 20.0)
  end
  begin
     id 18 
     name lhumerus
     direction 1 -4.48968e-011 2.38195e-027   
     length 5.38154   
     axis 180 -30 -90   XYZ
    dof rx ry rz
    limits (-60.0 90.0)
           (-90.0 90.0)
           (-90.0 90.0)
  end
  begin
     id 19
     name lradius
     direction 1 -4.48961e-011 4.85371e-027   
     length 3.33312   
     axis 180 -30 -90   XYZ
    dof rx
    limits (-10.0 170.0)
  end
  begin
     id 20
     name lwrist
     direction 1 -4.48961e-011 4.76515e-027   
     length 1.66656   
     axis -3.27502e-015 90 90   XYZ
    dof ry
    limits (-180.0 0.0)
 end
  begin
     id 21 
     name lhand
     direction 1 -4.48951e-011 9.53074e-027   
     length 0.710789   
     axis -6.08098e-015 90 90   XYZ
    dof rx rz
    limits (-90.0 90.0)
           (-45.0 45.0)
  end
  begin
     id 22 
     name lfingers
     direction 1 -4.48953e-011 1.90613e-026   
     length 0.573057   
     axis -1.21619e-014 90 90   XYZ
    dof rx
    limits (0.0 90.0)
  end
  begin
     id 23
     name lthumb
     direction 0.707107 -6.34973e-011 0.707107   
     length 0.822798   
     axis -90 45 -9.86923e-015   XYZ
    dof rx rz
    limits (-45.0 45.0)
           (-45.0 45.0)
  end
  begin
     id 24 
     name rclavicle
     direction -0.9585 0.265289 -0.104398   
     length 3.42039  
     axis 0 0 0   XYZ 
    dof ry rz
    limits (-10.0 20.0)
           (-20.0 0.0)
  end
  begin
     id 25 
     name rhumerus
     direction -1 -4.48977e-011 2.21478e-027  
     length 5.16954   
     axis 180 30 90   XYZ
    dof rx ry rz
    limits (-90.0 60.0)
           (-90.0 90.0)
           (-90.0 90.0)
  end
  begin
     id 26 
     name rradius
     direction -1 -4.48967e-011 5.63677e-027   
     length 3.38287   
     axis 180 30 90   XYZ
    dof rx
    limits (-10.0 170.0)
  end
  begin
     id 27 
     name rwrist
     direction -1 -4.48967e-011 4.76501e-027   
     length 1.69144   
     axis -3.27502e-015 -90 -90   XYZ
    dof ry
    limits (-180.0 0.0)
  end
  begin
     id 28
     name rhand
     direction -1 -4.48902e-011 9.53292e-027   
     length 0.817967   
     axis -6.08098e-015 -90 -90   XYZ
    dof rx rz
    limits (-90.0 90.0)
           (-45.0 45.0)
  end
  begin
     id 29
     name rfingers
     direction -1 -4.49012e-011 1.90561e-026   
     length 0.659466   
     axis -1.21619e-014 -90 -90   XYZ
    dof rx
    limits (0.0 90.0)
  end
  begin
     id 30
     name rthumb
     direction -0.707107 -6.34944e-011 0.707107   
     length 0.946865   
     axis -90 -45 9.86923e-015   XYZ
    dof rx rz
    limits (-45.0 45.0)
           (-45.0 45.0)
  end
:hierarchy
  begin
    root lhipjoint rhipjoint lowerback
    lhipjoint lfemur
    lfemur ltibia
    ltibia lfoot
    lfoot ltoes
    rhipjoint rfemur
    rfemur rtibia
    rtibia rfoot
    rfoot rtoes
    lowerback upperback
    upperback thorax
    thorax lowerneck lclavicle rclavicle
    lowerneck upperneck
    upperneck head
    lclavicle lhumerus
    lhumerus lradius
    lradius lwrist
    lwrist lhand lthumb
    lhand lfingers
    rclavicle rhumerus
    rhumerus rradius
    rradius rwrist
    rwrist rhand rthumb
    rhand rfingers
  end

#!OML:ASF F:\twosubjects\two\wednesday\Session 1\Justin1.ASF
:FULLY-SPECIFIED
:DEGREES
408
root -1.89802 14.3083 -4.66251 -743.766 22.1722 -391.302
lowerback 18.5489 5.69188 16.7843
upperback 7.15975 11.1283 10.0922
thorax -1.35782 5.78714 -0.360813
lowerneck -14.1636 9.86239 -6.45436
upperneck -0.742657 14.27 -1.64346
head 1.79805 7.0971 1.33082
rclavicle 8.77759e-014 3.68e-014
rhumerus -46.0749 -20.0727 -58.2074
rradius 45.9968
rwrist -19.9666
rhand -16.9034 17.1061
rfingers 7.12502
rthumb 9.32853 -12.6675
lclavicle 8.77759e-014 3.68e-014
lhumerus -51.3242 -3.22102 34.8567
lradius 66.4002
lwrist 51.5697
lhand 16.0766 54.9358
lfingers 7.12502
lthumb 40.8641 79.8952
rfemur 10.9914 1.8158 26.3818
rtibia 38.6425
rfoot -28.5051 -6.73906
rtoes -41.0031
lfemur -55.5193 24.244 2.80178
ltibia 72.52
lfoot -9.00915 6.78526
ltoes 17.1765
409
root -1.72291 14.3202 -4.54851 -746.151 21.802 -394.3
lowerback 19.1439 5.41253 18.7887
upperback 6.7891 11.4359 10.9975
thorax -1.84744 5.91028 -0.520539
lowerneck -14.349 9.7955 -6.49065
upperneck -0.564733 14.1887 -1.2624
head 1.86228 7.06049 1.47152
rclavicle 1.37031e-013 -7.01989e-014
rhumerus -46.4094 -20.9338 -57.5762
rradius 44.1015
rwrist -19.9217
rhand -18.6311 17.9027
rfingers 7.12502
rthumb 7.66127 -11.9385
lclavicle 1.37031e-013 -7.01989e-014
lhumerus -51.4225 -3.97248 34.9335
lradius 67.1881
lwrist 52.11
lhand 12.5299 57.3866
lfingers 7.12502
lthumb 37.5217 83.3143
rfemur 13.4168 2.29437 29.716
rtibia 37.3968
rfoot -25.9867 -7.75281
rtoes -42.3134
lfemur -54.7459 24.461 5.55558
ltibia 73.5181
lfoot -10.1716 5.71287
ltoes 17.8802
410
root -1.52497 14.3711 -4.44283 -747.88 22.5207 -396.217
lowerback 19.1835 5.21719 19.8394
upperback 6.33794 11.5377 11.399
thorax -2.24853 5.92306 -0.653634
lowerneck -15.1167 9.65258 -6.0773
upperneck 0.183289 13.9972 -1.13121
head 2.27885 6.93369 1.53161
rclavicle -3.24392e-014 4.32854e-014
rhumerus -47.0733 -22.0694 -56.8317
rradius 42.5686
rwrist -19.9123
rhand -21.3636 19.4637
rfingers 7.12502
rthumb 5.02328 -10.4567
lclavicle -3.24392e-014 4.32854e-014
lhumerus -51.0621 -4.92743 34.8178
lradius 67.1682
lwrist 51.9775
lhand 10.8629 49.7612
lfingers 7.12502
lthumb 35.9444 76.0913
rfemur 15.3625 2.291 31.3971
rtibia 36.4675
rfoot -23.2998 -7.91465
rtoes -42.7472
lfemur -54.2164 24.0661 6.49451
ltibia 74.1362
lfoot -11.2713 4.66421
ltoes 18.333
411
root -1.31831 14.4251 -4.34973 -749.105 23.8253 -397.84
lowerback 18.8185 5.0206 20.8093
upperback 5.68845 11.5036 11.3199
thorax -2.58977 5.85555 -1.19892
lowerneck -16.904 9.15611 -6.14487
upperneck 2.01235 13.4621 -0.217283
head 3.19275 6.62088 2.01926
rclavicle -1.48517e-013 9.93923e-017
rhumerus -48.0177 -23.8372 -56.0993
rradius 41.2243
rwrist -19.4666
rhand -24.2474 21.6618
rfingers 7.12502
rthumb 2.23839 -8.30619
lclavicle -1.48517e-013 9.93923e-017
lhumerus -50.3648 -5.36304 34.3263
lradius 66.996
lwrist 51.5724
lhand 8.28424 44.5176
lfingers 7.12502
lthumb 33.4972 71.4116
rfemur 16.4976 1.98614 32.3535
rtibia 35.9941
rfoot -19.9713 -7.73921
rtoes -42.9289
lfemur -54.0682 23.4162 6.47193
ltibia 74.3712
lfoot -12.2032 3.82518
ltoes 17.8775
412
root -1.09551 14.5047 -4.27285 -749.943 25.3964 -399.012
lowerback 17.9935 4.7713 21.0329
upperback 5.24809 11.0894 11.3194
thorax -2.67313 5.63519 -1.18276
lowerneck -15.8811 9.34816 -6.05092
upperneck 0.315909 13.6041 -0.325979
head 2.41972 6.76166 1.82005
rclavicle 6.10766e-014 6.30147e-014
rhumerus -48.1718 -24.9711 -55.4712
rradius 39.6523
rwrist -18.4737
rhand -17.951 18.222
rfingers 7.12502
rthumb 8.3176 -11.5943
lclavicle 6.10766e-014 6.30147e-014
lhumerus -50.124 -4.96136 34.2772
lradius 66.6342
lwrist 50.8898
lhand 7.06303 41.4803
lfingers 7.12502
lthumb 32.3357 68.6183
rfemur 17.0005 1.71197 32.5565
rtibia 35.994
rfoot -16.1663 -6.97729
rtoes -41.7676
lfemur -53.7404 22.6114 5.80745
ltibia 74.1863
lfoot -13.1665 3.02759
ltoes 18.7466
413
root -0.852958 14.6328 -4.21295 -750.533 27.3783 -399.555
lowerback 17.1533 4.69521 20.6053
upperback 4.82277 10.7687 11.2524
thorax -2.82027 5.45598 -0.947661
lowerneck -15.7715 9.30731 -6.23841
upperneck -0.277278 13.5659 -0.253188
head 2.17997 6.76979 1.83311
rclavicle -3.77691e-014 -3.71727e-014
rhumerus -48.4607 -25.5253 -54.8155
rradius 38.2068
rwrist -18.0198
rhand -24.4714 22.9077
rfingers 7.12502
rthumb 2.02213 -7.0625
lclavicle -3.77691e-014 -3.71727e-014
lhumerus -49.2655 -5.1598 34.7533
lradius 65.7924
lwrist 50.475
lhand 6.57462 39.4945
lfingers 7.12502
lthumb 31.8707 66.7263
rfemur 17.1261 1.2027 31.7553
rtibia 36.3024
rfoot -11.7774 -6.04226
rtoes -39.5893
lfemur -52.9885 21.3073 4.49297
ltibia 73.6329
lfoot -14.1675 2.22366
ltoes 22.177
414
root -0.606296 14.7716 -4.17015 -750.803 29.7275 -399.752
lowerback 16.289 4.75427 19.8704
upperback 4.25559 10.5726 10.9553
thorax -3.09224 5.31773 -0.837092
lowerneck -16.083 8.91298 -6.65113
upperneck -0.303059 13.1209 0.237223
head 2.1846 6.56834 2.05251
rclavicle -1.5207e-014 1.68967e-014
rhumerus -49.2651 -26.1206 -54.0544
rradius 37.2852
rwrist -17.4352
rhand -24.0349 22.2348
rfingers 7.12502
rthumb 2.44367 -7.73095
lclavicle -1.5207e-014 1.68967e-014
lhumerus -49.4026 -6.26474 35.4853
lradius 67.4498
lwrist 50.9213
lhand 4.26887 37.9302
lfingers 7.12502
lthumb 29.6724 65.5763
rfemur 16.6823 0.376213 30.2769
rtibia 36.7523
rfoot -6.17807 -5.04046
rtoes -37.6359
lfemur -52.3881 19.8589 2.54484
ltibia 72.829
lfoot -14.9508 1.35064
ltoes 25.6819
415
root -0.361564 14.8912 -4.14238 -751.156 31.8614 -400.502
lowerback 15.1555 4.70827 19.6524
upperback 3.73839 10.2599 10.8065
thorax -3.10726 5.14793 -0.75663
lowerneck -16.4187 8.77718 -6.65088
upperneck -0.420217 12.9715 0.162669
head 2.21636 6.49568 2.03911
rclavicle -9.93923e-015 1.21259e-014
rhumerus -49.8304 -26.535 -53.1743
rradius 36.5713
rwrist -16.0625
rhand -23.0683 21.5034
rfingers 7.12502
rthumb 3.3771 -8.44956
lclavicle -9.93923e-015 1.21259e-014
lhumerus -49.4239 -6.95716 36.2931
lradius 68.1653
lwrist 51.4656
lhand 2.25219 35.4891
lfingers 7.12502
lthumb 27.7457 63.4617
rfemur 15.6011 -0.0989668 29.4368
rtibia 37.4113
rfoot -0.0366306 -4.10191
rtoes -35.3274
lfemur -52.0722 18.747 0.889167
ltibia 71.7384
lfoot -15.3348 0.599598
ltoes 26.5902
416
root -0.121054 15.0098 -4.13156 -751.685 33.8436 -401.423
lowerback 14.3728 4.72204 19.8563
upperback 3.14619 10.2134 10.7293
thorax -3.30055 5.08639 -0.88131
lowerneck -16.953 8.36112 -7.35263
upperneck -0.136691 12.5936 0.36337
head 2.37077 6.30334 2.24827
rclavicle -3.6303e-014 5.56597e-015
rhumerus -50.3854 -26.2526 -52.291
rradius 35.8031
rwrist -15.2612
rhand -22.5896 21.7273
rfingers 7.12502
rthumb 3.83945 -8.21785
lclavicle -3.6303e-014 5.56597e-015
lhumerus -48.9159 -7.82754 37.3944
lradius 68.5346
lwrist 51.6695
lhand 3.89877 36.4525
lfingers 7.12502
lthumb 29.319 64.161
rfemur 14.2791 -0.314638 28.833
rtibia 38.2582
rfoot 5.80847 -3.20708
rtoes -25.6047
lfemur -51.546 17.7983 -0.689165
ltibia 70.3671
lfoot -15.5153 0.331723
ltoes 24.0754
417
root 0.108705 15.1326 -4.12708 -751.718 36.3351 -401.198
lowerback 13.9832 4.85697 19.1364
upperback 2.5185 10.2474 10.1932
thorax -3.79432 5.03312 -1.11227
lowerneck -17.051 7.73808 -8.34675
upperneck -0.0105693 11.9455 0.981709
head 2.36935 6.00067 2.59431
rclavicle -1.88845e-015 6.1822e-014
rhumerus -51.0742 -25.5039 -52.0131
rradius 35.3612
rwrist -14.9211
rhand -22.5113 22.1834
rfingers 7.12502
rthumb 3.91505 -7.76038
lclavicle -1.88845e-015 6.1822e-014
lhumerus -48.1638 -8.97015 38.3592
lradius 68.9057
lwrist 52.0107
lhand 5.68179 38.1674
lfingers 7.12502
lthumb 31.0201 65.5651
rfemur 12.9351 -0.784054 26.989
rtibia 39.4918
rfoot 10.5714 -0.845047
rtoes -21.2603
lfemur -50.5245 16.7329 -3.45475
ltibia 68.4932
lfoot -15.405 0.648517
ltoes 18.1703
418
root 0.347657 15.2993 -4.12836 -751.405 38.9643 -400.632
lowerback 13.1471 4.90002 17.7111
upperback 2.12313 9.88607 9.5721
thorax -3.92456 4.83824 -0.967774
lowerneck -17.5819 7.66662 -7.97367
upperneck 0.362176 11.8417 0.770437
head 2.63596 5.9244 2.51103
rclavicle -2.51463e-014 -8.26944e-014
rhumerus -51.0016 -24.4081 -52.5732
rradius 35.1073
rwrist -14.6345
rhand -22.2629 21.5355
rfingers 7.12502
rthumb 4.15487 -8.40369
lclavicle -2.51463e-014 -8.26944e-014
lhumerus -47.7836 -9.58083 38.905
lradius 69.269
lwrist 52.4168
lhand 5.79741 37.9457
lfingers 7.12502
lthumb 31.1303 65.3223
rfemur 11.3869 -1.09089 25.0116
rtibia 41.042
rfoot 13.2296 1.66342
rtoes -15.8694
lfemur -49.1637 15.5868 -6.11289
ltibia 66.814
lfoot -15.7431 -1.0105
ltoes 25.7325
